<?xml version="1.0" encoding="UTF-8"?>
<svg id="Layer_1" xmlns="http://www.w3.org/2000/svg" version="1.1" viewBox="0 0 1080 1080">
  <!-- Generator: Adobe Illustrator 29.5.1, SVG Export Plug-In . SVG Version: 2.1.0 Build 141)  -->
  <defs>
    <style>
      .st0 {
        fill: #f4e2d2;
      }

      .st1 {
        fill: #eb602d;
      }

      .st2 {
        fill: none;
        stroke: #eb602d;
        stroke-miterlimit: 10;
        stroke-width: 8.48px;
      }
    </style>
  </defs>
  <path class="st1" d="M820.89,220.97v676.89c-37.43,5.78-91.22,10.99-155.43,6.27-67.47-4.96-149.83-11.02-227.88-58.84-81.86-50.16-166.2-150.67-175.69-285.32-11.52-163.46,94.75-271.49,110.89-287.35,0,0,111-104.26,261.5-96.51,41.18,2.12,90.63,11.54,90.63,11.54,0,0,0,0,0,0,40.43,9.25,72.94,22.39,95.98,33.33Z"/>
  <path class="st0" d="M757.87,749.14s-8.48-35.27-50.94-78.91c-1.83-1.89-8.21-8.36-14.58-18.39-1.45-2.29-2.85-4.69-4.19-7.24-1.02-8.34-1.46-19.14-.68-33.04.09-.05,2.57-2.58,6.95-11.65,12.72-26.34,47.53-50.86,55.63-108.76,1.2-8.59,4.66-28.72-2.46-52.19-14.86-48.99-62.11-70.9-68.52-73.75-54.36-24.21-100.56-14.4-135.52-1.07-14.37,5.48-24.88-.44-28.88,8.45-4,8.9,3.02,18.07,7.72,29.17.63,1.5,1.26,2.94,1.92,4.3-9.09,9.13-15.83,20.97-19.09,36.59-4.64,22.18-7.07,43.73-5.36,48.87,1.7,5.14,5.86,12.49,5.53,16.28-.34,3.79-12.55,17.66-18.05,25.31-5.5,7.65-8.6,12.52-7.65,18.68.94,6.15,6.51,8.06,6.51,8.06,0,0,6.55,1.96,6.78,4.05.23,2.1.3,4.93-.78,8.74-1.09,3.81-2.59,7.66-2.59,7.66,0,0-1.74,3.67,1.1,7.24,2.84,3.58,9.1,5.05,9.1,5.05,0,0-2.25,1.04-3.63,3.42-1.37,2.37-1.82,7.4.08,8.4,1.9,1,5.08,2.16,5.21,4.91.13,2.75-.28,8.66-.96,13.58s-.65,13.82,5.24,18.5c5.8,4.6,15.92,7.5,35.87,3.82,9.11-.43,17.14-3.69,20.57,4.47,1.06,4.19,2.44,10.3,3.56,17.75,2.4,15.97,5.5,36.54-.24,53.01-5.26,15.1-17.44,25.25-28.61,31.75-25.86-10.21-50.86-23.23-68.4-39.19-47.51-43.23-82.41-99.97-82.41-182.69s29.45-116.49,43.27-137.12c13.82-20.63,34.14-39.23,34.14-39.23,9.33-8.87,22.97-20.36,41.14-31.08,22.29-13.15,51.88-25.32,90.51-30.38,70.44-9.24,162.47,28.87,162.47,28.87v-57.74s-134.75-42.73-243.31,0c-83.49,32.86-157.52,108.32-179,197.48-14.13,58.66-3.65,111.77,0,129.34,11.77,56.7,37.07,94.35,42.73,105.09,11.55,21.94,47.35,57.74,92.39,88.92,0,0,98.16,52.54,185.93,51.1,87.77-1.44,102.78,0,102.78,0l1.12-55.19s-.04,0-.04,0c.93-13.36-.64-23.95-2.35-31.24Z"/>
  <g>
    <path class="st2" d="M578.21,468.6c-4.8,13.9,2.59,28.93,15.59,33.49,11.87,4.16,25.71-1.36,31.76-13.28"/>
    <path class="st2" d="M641.9,539.22c12.74-.29,23.41-9.84,25.08-22.23,1.72-12.82-6.67-25.2-19.48-28.38"/>
    <path class="st2" d="M667.19,512.37c13.46,1.25,26.47-4.48,33.68-15.18,8.83-13.11,8.07-32.35-3.71-43.6-11.73-11.2-28.09-8.47-29.97-8.12"/>
    <path class="st2" d="M564.93,486.03c-1.6-1.17-7.05-4.88-13.86-3.86-10.1,1.51-14.52,12.11-15.3,14.15-4.8,12.47,1.48,29.67,14.88,37.47,11.31,6.59,27.53,6.38,37.95-3.69,10.56-10.21,9.13-24.72,8.91-26.61"/>
    <path class="st2" d="M649.87,458.04c-4.02-14.15-18.69-22.24-31.96-18.53-12.11,3.38-20.3,15.83-18.44,29.07"/>
    <path class="st2" d="M551.07,482.17c-10.26-14.49-8.29-33.83,3.46-44.75,9.69-9,24.69-11.03,37.53-4.91,7.82-18.78,29.16-28.28,48.2-21.61,19.27,6.75,30,27.9,23.98,47.59"/>
    <path class="st2" d="M600.96,587.57c-.29-3.37-3.69-44.68,5.85-47.46,1.9-.55,8.45-.78,10.79-.87,3.38-.12,5.79-.07,8.08-.04,3.96.06,9.69.1,17,0"/>
  </g>
</svg>