<?xml version="1.0" encoding="UTF-8"?>
<svg id="Layer_1" xmlns="http://www.w3.org/2000/svg" version="1.1" viewBox="0 0 3948.32 1080">
  <!-- Generator: Adobe Illustrator 29.5.1, SVG Export Plug-In . SVG Version: 2.1.0 Build 141)  -->
  <defs>
    <style>
      .st0 {
        fill: #f4e2d2;
      }

      .st1 {
        fill: #eb602d;
      }

      .st2 {
        fill: none;
        stroke: #eb602d;
        stroke-miterlimit: 10;
        stroke-width: 8.48px;
      }
    </style>
  </defs>
  <g>
    <path class="st1" d="M820.89,237.71v676.89c-37.43,5.78-91.22,10.99-155.43,6.27-67.47-4.96-149.83-11.02-227.88-58.84-81.86-50.16-166.2-150.67-175.69-285.32-11.52-163.46,94.75-271.49,110.89-287.35,0,0,111-104.26,261.5-96.51,41.18,2.12,90.63,11.54,90.63,11.54,0,0,0,0,0,0,40.43,9.25,72.94,22.39,95.98,33.33Z"/>
    <path class="st0" d="M757.87,765.87s-8.48-35.27-50.94-78.91c-1.83-1.89-8.21-8.36-14.58-18.39-1.45-2.29-2.85-4.69-4.19-7.24-1.02-8.34-1.46-19.14-.68-33.04.09-.05,2.57-2.58,6.95-11.65,12.72-26.34,47.53-50.86,55.63-108.76,1.2-8.59,4.66-28.72-2.46-52.19-14.86-48.99-62.11-70.9-68.52-73.75-54.36-24.21-100.56-14.4-135.52-1.07-14.37,5.48-24.88-.44-28.88,8.45-4,8.9,3.02,18.07,7.72,29.17.63,1.5,1.26,2.94,1.92,4.3-9.09,9.13-15.83,20.97-19.09,36.59-4.64,22.18-7.07,43.73-5.36,48.87,1.7,5.14,5.86,12.49,5.53,16.28-.34,3.79-12.55,17.66-18.05,25.31-5.5,7.65-8.6,12.52-7.65,18.68.94,6.15,6.51,8.06,6.51,8.06,0,0,6.55,1.96,6.78,4.05.23,2.1.3,4.93-.78,8.74-1.09,3.81-2.59,7.66-2.59,7.66,0,0-1.74,3.67,1.1,7.24,2.84,3.58,9.1,5.05,9.1,5.05,0,0-2.25,1.04-3.63,3.42-1.37,2.37-1.82,7.4.08,8.4,1.9,1,5.08,2.16,5.21,4.91.13,2.75-.28,8.66-.96,13.58s-.65,13.82,5.24,18.5c5.8,4.6,15.92,7.5,35.87,3.82,9.11-.43,17.14-3.69,20.57,4.47,1.06,4.19,2.44,10.3,3.56,17.75,2.4,15.97,5.5,36.54-.24,53.01-5.26,15.1-17.44,25.25-28.61,31.75-25.86-10.21-50.86-23.23-68.4-39.19-47.51-43.23-82.41-99.97-82.41-182.69s29.45-116.49,43.27-137.12c13.82-20.63,34.14-39.23,34.14-39.23,9.33-8.87,22.97-20.36,41.14-31.08,22.29-13.15,51.88-25.32,90.51-30.38,70.44-9.24,162.47,28.87,162.47,28.87v-57.74s-134.75-42.73-243.31,0c-83.49,32.86-157.52,108.32-179,197.48-14.13,58.66-3.65,111.77,0,129.34,11.77,56.7,37.07,94.35,42.73,105.09,11.55,21.94,47.35,57.74,92.39,88.92,0,0,98.16,52.54,185.93,51.1,87.77-1.44,102.78,0,102.78,0l1.12-55.19s-.04,0-.04,0c.93-13.36-.64-23.95-2.35-31.24Z"/>
    <g>
      <path class="st2" d="M578.21,485.33c-4.8,13.9,2.59,28.93,15.59,33.49,11.87,4.16,25.71-1.36,31.76-13.28"/>
      <path class="st2" d="M641.9,555.95c12.74-.29,23.41-9.84,25.08-22.23,1.72-12.82-6.67-25.2-19.48-28.38"/>
      <path class="st2" d="M667.19,529.11c13.46,1.25,26.47-4.48,33.68-15.18,8.83-13.11,8.07-32.35-3.71-43.6-11.73-11.2-28.09-8.47-29.97-8.12"/>
      <path class="st2" d="M564.93,502.77c-1.6-1.17-7.05-4.88-13.86-3.86-10.1,1.51-14.52,12.11-15.3,14.15-4.8,12.47,1.48,29.67,14.88,37.47,11.31,6.59,27.53,6.38,37.95-3.69,10.56-10.21,9.13-24.72,8.91-26.61"/>
      <path class="st2" d="M649.87,474.77c-4.02-14.15-18.69-22.24-31.96-18.53-12.11,3.38-20.3,15.83-18.44,29.07"/>
      <path class="st2" d="M551.07,498.9c-10.26-14.49-8.29-33.83,3.46-44.75,9.69-9,24.69-11.03,37.53-4.91,7.82-18.78,29.16-28.28,48.2-21.61,19.27,6.75,30,27.9,23.98,47.59"/>
      <path class="st2" d="M600.96,604.3c-.29-3.37-3.69-44.68,5.85-47.46,1.9-.55,8.45-.78,10.79-.87,3.38-.12,5.79-.07,8.08-.04,3.96.06,9.69.1,17,0"/>
    </g>
  </g>
  <g>
    <path class="st1" d="M1309.01,570.25h90.8v205.97c-53.89,43.56-129.19,65.71-202.28,65.71-160.2,0-278.32-111.48-278.32-265.77s118.12-265.77,279.8-265.77c86.38,0,158.72,28.79,207.45,84.16l-60.54,59.06c-40.6-40.6-87.11-59.06-142.48-59.06-110,0-187.52,74.56-187.52,181.61s77.52,181.61,186.78,181.61c36.91,0,73.09-7.38,106.31-26.58v-160.94Z"/>
    <path class="st1" d="M1817.67,603.47v231.07h-87.11v-47.99c-22.15,33.96-64.97,53.15-124.03,53.15-90.07,0-146.91-49.46-146.91-118.12s44.29-117.38,163.89-117.38h101.88v-5.91c0-53.89-32.48-85.64-98.19-85.64-44.3,0-90.07,14.77-119.6,39.13l-36.17-67.18c42.08-32.48,103.36-48.72,166.84-48.72,113.69,0,179.39,53.89,179.39,167.58ZM1725.39,711.25v-45.77h-95.23c-62.75,0-79.73,23.62-79.73,52.42,0,33.22,28.05,54.63,75.3,54.63s84.16-20.67,99.66-61.28Z"/>
    <path class="st1" d="M1906.27,286.76h92.28v547.78h-92.28V286.76Z"/>
    <path class="st1" d="M2459.22,666.96h-309.33c11.07,57.58,59.06,94.5,127.72,94.5,44.29,0,78.99-14.03,107.05-42.82l49.46,56.84c-35.44,42.08-90.8,64.23-158.72,64.23-132.15,0-217.78-84.9-217.78-202.28s86.38-201.54,203.76-201.54,199.33,80.47,199.33,203.76c0,7.38-.74,18.46-1.48,27.32ZM2149.15,605.68h223.69c-7.38-56.85-50.94-95.97-111.48-95.97s-103.35,38.39-112.21,95.97Z"/>
    <path class="st1" d="M2908.08,608.64v225.9h-92.28v-214.09c0-70.13-34.7-104.09-93.76-104.09-65.7,0-110,39.87-110,118.86v199.33h-92.28v-394.23h87.85v50.94c30.27-36.17,78.25-55.37,135.84-55.37,94.5,0,164.63,53.89,164.63,172.75Z"/>
    <path class="st1" d="M3339.96,714.94h-258.39l-50.94,119.6h-98.93l232.55-516.78h94.5l233.29,516.78h-100.4l-51.68-119.6ZM3308.22,639.64l-97.45-225.9-96.71,225.9h194.16Z"/>
    <path class="st1" d="M3528.22,317.77h95.97v516.78h-95.97V317.77Z"/>
  </g>
</svg>